<svg xmlns="http://www.w3.org/2000/svg" width="1200" height="630" viewBox="0 0 1200 630">
  <rect width="1200" height="630" fill="#f8f5ed"/>
  <path d="M70 108h1060M70 552h1060" stroke="#deded2"/>
  <text x="70" y="79" font-family="Georgia,serif" font-weight="bold" font-style="italic" font-size="48" letter-spacing="-3" fill="#34372f">stet</text>
  <g fill="#bc422e"><circle cx="79" cy="94" r="2"/><circle cx="90" cy="94" r="2"/><circle cx="101" cy="94" r="2"/></g>
  <text x="1130" y="72" text-anchor="end" font-family="Arial,sans-serif" font-size="18" fill="#626858">stetkit.com</text>
  <text x="70" y="228" font-family="Georgia,serif" font-size="92" letter-spacing="-5" fill="#34372f">A little ink.</text>
  <text x="70" y="329" font-family="Georgia,serif" font-size="92" letter-spacing="-5" fill="#34372f">A lot of <tspan font-style="italic" fill="#bc422e">personality.</tspan></text>
  <path d="M366 349q192 13 391-3M375 356q184 6 368-4" fill="none" stroke="#c84935" stroke-width="3" stroke-linecap="round"/>
  <text x="73" y="425" font-family="Arial,sans-serif" font-size="24" fill="#626858">Live UI annotations. Agent and developer first.</text>
  <text x="73" y="590" font-family="Arial,sans-serif" font-size="17" fill="#626858">Project skills. Typed API. Zero runtime dependencies.</text>
  <text x="1130" y="590" text-anchor="end" font-family="Arial,sans-serif" font-size="17" fill="#626858">v0.1.0</text>
  <g transform="translate(879 194) rotate(5)">
    <path d="M0 3 196 0 192 174 3 170Z" fill="#f6e89d" stroke="#d7c87c"/>
    <text x="24" y="58" font-family="Georgia,serif" font-style="italic" font-size="25" fill="#655530">a little less</text>
    <text x="24" y="91" font-family="Georgia,serif" font-style="italic" font-size="25" fill="#655530">perfect.</text>
    <text x="24" y="134" font-family="Georgia,serif" font-style="italic" font-size="25" fill="#655530">a little more you.</text>
  </g>
  <path d="M992 420q-8 51-82 54m11-14-15 15 20 8" fill="none" stroke="#c84935" stroke-width="3" stroke-linecap="round"/>
</svg>
